HIERARCHY
ROOT Hips
{
	OFFSET 0.000000 0.000000 0.000000
	CHANNELS 6 Xposition Yposition Zposition Xrotation Yrotation Zrotation
	JOINT LeftUpLeg_virtual
	{
		OFFSET 0.000000 0.000000 0.000000
		CHANNELS 3 Xrotation Yrotation Zrotation
		JOINT LeftUpLeg
		{
			OFFSET 11.394100 -6.187798 -0.413800
			CHANNELS 3 Xrotation Yrotation Zrotation
			JOINT LeftLeg
			{
				OFFSET 0.430247 -32.302673 3.732800
				CHANNELS 3 Xrotation Yrotation Zrotation
				JOINT LeftFoot
				{
					OFFSET -0.430247 -48.264931 -6.423300
					CHANNELS 3 Xrotation Yrotation Zrotation
					JOINT LeftToeBase
					{
						OFFSET 4.230900 -16.068199 23.438400
						CHANNELS 3 Xrotation Yrotation Zrotation
						JOINT LeftToe_End
						{
							OFFSET 4.510700 0.695400 19.974600
							CHANNELS 3 Xrotation Yrotation Zrotation
							End Site
							{
								OFFSET 0 0 0
							}
						}
					}
				}
			}
		}
	}
	JOINT RightUpLeg_virtual
	{
		OFFSET 0.000000 0.000000 0.000000
		CHANNELS 3 Xrotation Yrotation Zrotation
		JOINT RightUpLeg
		{
			OFFSET -11.333700 -6.187798 -0.413800
			CHANNELS 3 Xrotation Yrotation Zrotation
			JOINT RightLeg
			{
				OFFSET -0.430392 -32.302628 3.733000
				CHANNELS 3 Xrotation Yrotation Zrotation
				JOINT RightFoot
				{
					OFFSET 0.430392 -48.264973 -6.423500
					CHANNELS 3 Xrotation Yrotation Zrotation
					JOINT RightToeBase
					{
						OFFSET -4.230900 -16.068199 23.438400
						CHANNELS 3 Xrotation Yrotation Zrotation
						JOINT RightToe_End
						{
							OFFSET -4.510700 0.695400 19.974600
							CHANNELS 3 Xrotation Yrotation Zrotation
							End Site
							{
								OFFSET 0 0 0
							}
						}
					}
				}
			}
		}
	}
	JOINT Spine_virtual
	{
		OFFSET 0.000000 0.000000 0.000000
		CHANNELS 3 Xrotation Yrotation Zrotation
		JOINT Spine
		{
			OFFSET -0.002400 12.777504 0.315300
			CHANNELS 3 Xrotation Yrotation Zrotation
			JOINT Spine1
			{
				OFFSET -0.002067 5.816869 0.032633
				CHANNELS 3 Xrotation Yrotation Zrotation
				JOINT Spine1_split
				{
					OFFSET -0.002067 5.816869 0.032633
					CHANNELS 3 Xrotation Yrotation Zrotation
					JOINT Spine2
					{
						OFFSET -0.002067 5.816869 0.032633
						CHANNELS 3 Xrotation Yrotation Zrotation
						JOINT Neck_virtual
						{
							OFFSET 0.000000 0.000000 0.000000
							CHANNELS 3 Xrotation Yrotation Zrotation
							JOINT Neck
							{
								OFFSET -0.003700 21.199493 -0.826900
								CHANNELS 3 Xrotation Yrotation Zrotation
								JOINT Head
								{
									OFFSET 0.000000 20.442200 4.834800
									CHANNELS 3 Xrotation Yrotation Zrotation
									JOINT HeadTop_End
									{
										OFFSET 0.000000 34.668396 4.968400
										CHANNELS 3 Xrotation Yrotation Zrotation
										End Site
										{
											OFFSET 0 0 0
										}
									}
								}
							}
						}
						JOINT LeftShoulder_virtual
						{
							OFFSET 0.000000 0.000000 0.000000
							CHANNELS 3 Xrotation Yrotation Zrotation
							JOINT LeftShoulder
							{
								OFFSET 3.288150 8.794197 -1.372250
								CHANNELS 3 Xrotation Yrotation Zrotation
								JOINT LeftShoulder_split
								{
									OFFSET 3.288150 8.794197 -1.372250
									CHANNELS 3 Xrotation Yrotation Zrotation
									JOINT LeftArm
									{
										OFFSET 11.953299 -2.279007 -0.146200
										CHANNELS 3 Xrotation Yrotation Zrotation
										JOINT LeftForeArm
										{
											OFFSET 18.448900 0.000000 0.000000
											CHANNELS 3 Xrotation Yrotation Zrotation
											JOINT LeftHand
											{
												OFFSET 29.527798 0.000000 0.000000
												CHANNELS 3 Xrotation Yrotation Zrotation
												End Site
												{
													OFFSET 0 0 0
												}
											}
										}
									}
								}
							}
						}
						JOINT RightShoulder_virtual
						{
							OFFSET 0.000000 0.000000 0.000000
							CHANNELS 3 Xrotation Yrotation Zrotation
							JOINT RightShoulder
							{
								OFFSET -3.249400 8.794197 -1.372250
								CHANNELS 3 Xrotation Yrotation Zrotation
								JOINT RightShoulder_split
								{
									OFFSET -3.249400 8.794197 -1.372250
									CHANNELS 3 Xrotation Yrotation Zrotation
									JOINT RightArm
									{
										OFFSET -11.953299 -2.279007 -0.146200
										CHANNELS 3 Xrotation Yrotation Zrotation
										JOINT RightForeArm
										{
											OFFSET -18.448900 0.000000 0.000000
											CHANNELS 3 Xrotation Yrotation Zrotation
											JOINT RightHand
											{
												OFFSET -29.527802 0.000000 0.000000
												CHANNELS 3 Xrotation Yrotation Zrotation
												End Site
												{
													OFFSET 0 0 0
												}
											}
										}
									}
								}
							}
						}
					}
				}
			}
		}
	}
}
MOTION
Frames: 9
Frame Time: 0.03333333
13.210150 99.495354 31.215862 0.000000 0.000000 0.000000 5.794565 27.301475 -13.604714 -101.037021 -14.182415 23.417838 113.793274 -22.152738 7.471638 45.383462 -6.868396 14.230914 -13.212075 -7.666977 -2.645956 0.000000 0.000000 0.000000 -2.295756 23.262429 -11.637002 1.722747 -27.073273 10.269563 21.184206 8.986843 -5.648114 -35.868516 -18.679719 19.560330 13.323331 10.200481 -73.728696 0.000000 0.000000 0.000000 3.363821 14.239562 -13.053438 23.489960 1.202453 6.376603 3.222351 0.390351 -3.360205 0.003677 0.176003 0.196896 0.000000 0.000000 0.000000 1.320163 3.726599 -4.548673 1.639574 16.968415 21.855991 -4.445105 -61.817597 -4.412624 0.000000 0.000000 0.000000 -0.224988 0.830955 -4.182105 1.087006 -21.675549 -11.252776 7.427493 1.775335 2.560426 16.601403 17.113744 -54.601700 144.078401 -68.457798 130.318821 0.000000 0.000000 0.000000 -0.182505 2.019819 -2.819402 -4.348781 4.753283 24.032675 -2.518809 -10.632076 7.543497 7.414558 8.181732 10.499579 -168.432834 52.335840 177.956412 0.000000 0.000000 0.000000 
13.144497 99.436890 39.856709 0.000000 0.000000 0.000000 4.295294 23.111437 -14.655549 -102.055218 -8.787302 26.788654 99.314461 -19.761836 0.696083 32.520235 -7.020454 16.613817 -9.652466 -7.944964 -1.432045 0.000000 0.000000 0.000000 -1.834690 20.946699 -13.197928 5.434423 -25.653229 9.533472 18.257763 7.733999 -4.461442 -32.414575 -16.924121 18.218350 13.503220 10.111970 -73.728730 0.000000 0.000000 0.000000 4.997716 13.213563 -15.141858 23.350190 1.821216 6.370924 3.332222 0.165252 -3.058452 0.123714 0.414397 0.345606 0.000000 0.000000 0.000000 0.792428 3.604221 -4.322089 2.241155 16.936639 21.362062 -6.457723 -59.460765 -4.981161 0.000000 0.000000 0.000000 -0.423895 0.775923 -3.981444 1.626338 -18.889433 -11.602851 6.431853 2.870491 0.299860 24.031180 18.955370 -54.415557 140.339883 -70.113688 126.623183 0.000000 0.000000 0.000000 -0.809561 1.800878 -2.611938 -4.397331 5.790904 23.950396 -6.503033 -14.032792 7.114714 9.449020 7.911442 11.653531 -167.625096 50.142294 176.918401 0.000000 0.000000 0.000000 
12.999361 98.965073 49.979908 0.000000 0.000000 0.000000 2.428663 16.451218 -15.111218 -101.348997 -4.612595 28.885703 84.615874 -17.561156 -2.397871 22.426916 -9.692075 10.097754 3.242195 -7.795902 1.132314 0.000000 0.000000 0.000000 -1.718729 15.269014 -14.386076 5.799891 -20.869793 6.607237 21.590546 7.016087 -3.063679 -17.616902 -12.854349 19.763183 11.759184 9.764210 -66.114517 0.000000 0.000000 0.000000 6.519231 10.636768 -16.938032 22.540104 2.380690 6.288085 2.948912 -0.188324 -2.529329 0.113493 0.300633 0.309157 0.000000 0.000000 0.000000 0.197544 3.195208 -3.748931 2.303864 16.841845 20.815041 -7.685533 -56.975334 -5.705371 0.000000 0.000000 0.000000 -0.772332 0.464123 -3.725049 2.148459 -15.123384 -12.963674 5.113015 2.222910 -0.770763 31.406040 22.949113 -54.819552 134.764045 -74.097498 121.725432 0.000000 0.000000 0.000000 -1.662979 1.448221 -2.238658 -4.476975 7.234039 24.407898 -8.019497 -13.380932 4.976165 9.645244 3.319563 16.332972 -168.198558 50.099960 176.763793 0.000000 0.000000 0.000000 
13.146434 98.078476 60.448795 0.000000 0.000000 0.000000 -0.065638 8.557845 -14.837563 -96.078386 -1.217475 28.316066 72.657940 -16.306088 -1.792980 16.319518 -11.537369 -1.139683 11.975883 -7.125113 8.046967 0.000000 0.000000 0.000000 -1.763659 7.741739 -14.835046 2.534071 -12.773694 2.269088 30.737132 7.364402 -1.555516 4.630497 -7.123438 20.082243 13.141795 5.727733 -50.460355 0.000000 0.000000 0.000000 6.030157 8.233027 -17.596135 21.198976 2.618041 5.908047 2.023140 -0.546654 -2.020885 0.071670 -0.049342 0.114163 0.000000 0.000000 0.000000 -0.378786 2.689582 -3.139214 2.111723 16.896763 19.988421 -7.108410 -55.155830 -5.824262 0.000000 0.000000 0.000000 -1.376871 0.038142 -3.582877 2.576521 -11.608870 -14.870259 4.517899 0.051186 -0.905411 36.604657 27.413615 -54.973252 125.094396 -79.269468 113.419328 0.000000 0.000000 0.000000 -2.585996 0.999221 -1.950978 -4.498495 8.741250 25.245798 -6.836857 -9.391012 2.606000 10.183061 -2.747998 21.868821 -169.453182 54.774589 177.035730 0.000000 0.000000 0.000000 
13.394569 96.974892 70.992401 0.000000 0.000000 0.000000 -3.136401 0.699191 -13.701698 -84.445788 3.542054 25.393462 63.000777 -13.221795 -0.428060 9.371763 -9.391497 -8.609055 11.534257 -6.537395 16.918713 0.000000 0.000000 0.000000 -1.478464 0.083986 -14.456859 -4.602613 -2.530494 -1.288942 41.925286 5.799108 0.291160 25.207365 -3.915491 16.357475 16.813802 0.163138 -31.746422 0.000000 0.000000 0.000000 3.676007 6.757624 -16.602998 19.572474 2.240350 5.056231 0.769262 -0.815807 -1.801295 -0.098482 -0.586636 -0.038874 0.000000 0.000000 0.000000 -1.106251 2.171912 -2.773992 1.928096 17.303289 18.488781 -4.202647 -54.837403 -4.619712 0.000000 0.000000 0.000000 -2.143051 -0.429734 -3.599393 2.756397 -9.600796 -16.842804 4.849179 -2.029258 -1.167184 38.032416 31.108944 -54.170924 91.246519 -83.975427 81.443094 0.000000 0.000000 0.000000 -3.397511 0.494222 -1.955665 -4.390196 10.090976 26.317685 -5.617186 -4.478674 2.331225 12.541061 -5.924010 26.171866 -171.166043 66.861241 177.695964 0.000000 0.000000 0.000000 
13.586157 96.085190 80.475983 0.000000 0.000000 0.000000 -6.357470 -6.680059 -12.086482 -66.504486 9.647944 20.278557 55.221888 -7.265986 0.542990 -0.312586 -2.519841 -8.838776 7.909459 -6.328593 20.755285 0.000000 0.000000 0.000000 -2.601377 -5.653834 -13.452589 -14.309463 6.960076 -2.043460 52.792236 2.310370 2.918426 37.313026 -4.287403 12.168780 18.939071 -5.141704 -17.757262 0.000000 0.000000 0.000000 -0.730567 5.709474 -13.881563 17.806057 1.029753 3.542675 -0.518706 -1.073419 -2.016928 -0.394506 -1.036401 -0.052747 0.000000 0.000000 0.000000 -2.161762 1.725910 -2.732861 1.893398 18.196577 16.079688 2.292625 -56.123463 -0.637582 0.000000 0.000000 0.000000 -2.853921 -0.913819 -3.677205 2.485114 -9.924647 -18.305609 5.053044 -4.014816 -2.543435 34.887165 32.802858 -51.555241 25.085205 -81.332110 17.625599 0.000000 0.000000 0.000000 -4.120528 -0.105698 -2.321995 -4.093731 10.999459 27.405304 -4.349766 -0.981705 3.592230 16.844251 -1.892461 27.499388 -172.837978 86.606908 178.474277 0.000000 0.000000 0.000000 
13.191577 96.229576 88.620377 0.000000 0.000000 0.000000 -10.215156 -12.359617 -10.404341 -46.223695 14.339661 13.376895 49.410931 0.146437 1.111798 -8.508099 6.085981 -5.827574 7.918063 -4.948131 15.585305 0.000000 0.000000 0.000000 -6.002752 -7.589037 -11.724765 -25.376984 12.439328 -0.862542 62.702708 -1.546302 6.115560 40.017156 -4.928477 10.310160 20.007564 -10.639738 -14.383832 0.000000 0.000000 0.000000 -6.331234 6.468484 -10.580934 16.019848 -0.926230 1.443413 -1.578706 -1.453889 -2.578934 -0.440463 -1.212189 0.048671 0.000000 0.000000 0.000000 -3.443973 1.249338 -2.915131 2.043208 19.658790 13.102982 13.125867 -57.513533 7.310058 0.000000 0.000000 0.000000 -3.317791 -1.424774 -3.626373 1.754274 -12.721898 -19.083202 4.839051 -5.192462 -4.119403 27.497532 30.897699 -46.803451 7.302143 -72.089669 2.235029 0.000000 0.000000 0.000000 -4.579870 -0.863894 -3.026124 -3.713955 11.557704 27.959244 -3.733302 -0.407159 5.585558 23.717820 11.036992 23.960090 4.731132 70.423219 0.347157 0.000000 0.000000 0.000000 
12.133717 98.137360 94.878227 0.000000 0.000000 0.000000 -15.027965 -14.315901 -8.895592 -27.351257 15.615769 7.282302 44.528756 5.098722 1.625282 -10.312872 12.835569 -5.120467 5.712606 -3.392395 6.787813 0.000000 0.000000 0.000000 -11.962554 -7.250551 -9.692828 -37.375287 13.961864 0.950581 69.967659 -5.473611 8.939208 36.249501 -3.878512 11.107427 22.003277 -15.331277 -21.920939 0.000000 0.000000 0.000000 -11.191259 7.953322 -7.505323 14.267175 -3.430087 -0.653325 -2.053521 -2.075646 -3.181806 -0.224852 -1.317926 0.199443 0.000000 0.000000 0.000000 -4.798740 0.615054 -3.106208 2.417451 21.499571 10.286439 27.181721 -57.307261 18.599223 0.000000 0.000000 0.000000 -3.300332 -1.931988 -3.278726 0.770930 -17.533290 -19.206398 3.857416 -4.910398 -6.297398 17.480155 25.070184 -41.356614 3.478663 -60.477746 0.767702 0.000000 0.000000 0.000000 -4.666537 -1.793837 -3.823630 -3.286975 11.618855 27.809897 -4.215759 -0.671859 5.942022 32.229337 29.506363 15.123294 2.146865 53.290703 2.813064 0.000000 0.000000 0.000000 
10.807763 101.805237 100.276428 0.000000 0.000000 0.000000 -20.227820 -11.034108 -7.422898 -9.959321 15.039303 3.611305 37.600099 6.372276 1.515545 -7.858285 16.169115 -6.428244 -4.663944 -2.146468 0.712538 0.000000 0.000000 0.000000 -18.183157 -4.722453 -7.363373 -46.845481 14.041329 2.997396 72.865530 -9.089912 10.156082 28.764659 -1.408157 13.504842 26.476351 -19.005290 -34.692539 0.000000 0.000000 0.000000 -15.624983 9.021089 -5.419132 12.477091 -6.104161 -2.075397 -1.839015 -2.897597 -3.500277 0.236662 -1.430121 0.287028 0.000000 0.000000 0.000000 -5.890323 -0.038526 -3.091539 3.302136 23.377589 8.359189 39.433117 -54.311861 28.723367 0.000000 0.000000 0.000000 -2.876733 -2.342315 -2.618284 -0.156243 -23.283094 -18.742732 2.578679 -4.304171 -8.817593 7.539205 17.215920 -36.904540 2.858758 -49.424878 2.372462 0.000000 0.000000 0.000000 -4.518127 -2.720682 -4.433928 -2.717253 10.920370 26.423495 -4.352318 -0.875490 5.086487 42.026127 47.868739 0.728138 -2.112604 47.422912 7.240120 0.000000 0.000000 0.000000 
